<?xml version="1.0" encoding="utf-8"?>
<!-- Generator: Adobe Illustrator 22.1.0, SVG Export Plug-In . SVG Version: 6.00 Build 0)  -->
<svg version="1.1" id="Layer_1" xmlns="http://www.w3.org/2000/svg" xmlns:xlink="http://www.w3.org/1999/xlink" x="0px" y="0px"
	 viewBox="0 0 512 512" style="enable-background:new 0 0 512 512;" xml:space="preserve">
<style type="text/css">
	.st0{fill:#FFFFFF;}
</style>
<g>
	<g>
		<path class="st0" d="M458.4,363.1c-21,0-38.8,13.8-44.8,32.8H383v-91.1h37.2c6,19,23.8,32.8,44.8,32.8c25.9,0,47-21.1,47-47
			c0-25.9-21.1-47-47-47c-21,0-38.8,13.8-44.8,32.8H383v-19.7H129v19.7H91.8c-6-19-23.8-32.8-44.8-32.8c-25.9,0-47,21.1-47,47
			s21.1,47,47,47c21,0,38.8-13.8,44.8-32.8H129v91.2c-0.6-0.1-1.2-0.1-1.8-0.1H91.8c-6-19-23.8-32.8-44.8-32.8
			c-25.9,0-47,21.1-47,47s21.1,47,47,47c21,0,38.8-13.8,44.8-32.8h35.4c0.6,0,1.2-0.1,1.8-0.1v12.2c0,7.8,6.3,14.2,14.2,14.2h78.2
			v-53.3c0-7.8,6.3-14.2,14.2-14.2h40.9c7.8,0,14.2,6.3,14.2,14.2v53.3h78.2c7.8,0,14.2-6.3,14.2-14.2v-12h30.6
			c6,19,23.8,32.8,44.8,32.8c25.9,0,47-21.1,47-47S484.3,363.1,458.4,363.1z M218.8,331.9h-21.8c-7.8,0-14.2-6.3-14.2-14.2
			c0-7.8,6.3-14.2,14.2-14.2h21.8c7.8,0,14.2,6.3,14.2,14.2S226.6,331.9,218.8,331.9z M315.1,331.9h-21.8c-7.8,0-14.2-6.3-14.2-14.2
			c0-7.8,6.3-14.2,14.2-14.2h21.8c7.8,0,14.2,6.3,14.2,14.2S322.9,331.9,315.1,331.9z"/>
	</g>
</g>
<g>
	<g>
		<path class="st0" d="M422.4,54.9c-21,0-38.8,13.8-44.8,32.8h-36.2c-7.8,0-14.2,6.3-14.2,14.2v51.4l-64.6-34.3
			c-4.2-2.2-9.1-2.2-13.3,0l-64.6,34.3v-51.4c0-7.8-6.3-14.2-14.2-14.2h-36.2c-6-19-23.8-32.8-44.8-32.8c-25.9,0-47,21.1-47,47
			c0,25.9,21.1,47,47,47c21,0,38.8-13.8,44.8-32.8h22.1v52.3l-50,26.6c-4.6,2.5-7.5,7.3-7.5,12.5V238H413v-30.6
			c0-5.2-2.9-10.1-7.5-12.5l-50-26.6V116h22.1c6,19,23.8,32.8,44.8,32.8c25.9,0,47-21.1,47-47S448.4,54.9,422.4,54.9z"/>
	</g>
</g>
</svg>
